# xmcd CD database file
#
# Track frame offsets:
#	150
#	20029
#	41436
#	71141
#	89317
#	108740
#	132143
#	153056
#	178401
#	202193
#	222830
#	239515
#	254979
#	266795
#
# Disc length: 3700 seconds
#
# Revision: 0
# Processed by: cddbd v1.5PL3 Copyright (c) Steve Scherf et al.
# Submitted via: CDex 1.51
#
DISCID=dd0e720e
DTITLE=Ulla van Daelen - Surprise
DYEAR=2002
DGENRE=Jazz
TTITLE0=Surprise
TTITLE1=Story
TTITLE2=Floating
TTITLE3=Bulgarian Rhythm
TTITLE4=Quizàs?
TTITLE5=What's up in March
TTITLE6=Punk Panther
TTITLE7=Cora-Waltz
TTITLE8=Mémoire
TTITLE9=Chinenco
TTITLE10=Gagtime
TTITLE11=Minnelied
TTITLE12=Sunday-Blues
TTITLE13=Boliviana
EXTD=YEAR: 2002
EXTT0=
EXTT1=
EXTT2=
EXTT3=
EXTT4=
EXTT5=
EXTT6=
EXTT7=
EXTT8=
EXTT9=
EXTT10=
EXTT11=
EXTT12=
EXTT13=
PLAYORDER=
